<?xml version="1.0" standalone="no"?>
<!DOCTYPE svg PUBLIC "-//W3C//DTD SVG 20010904//EN"
 "http://www.w3.org/TR/2001/REC-SVG-20010904/DTD/svg10.dtd">
<svg version="1.0" xmlns="http://www.w3.org/2000/svg"
 width="100.000000pt" height="100.000000pt" viewBox="0 0 100.000000 100.000000"
 preserveAspectRatio="xMidYMid meet">
<metadata>
Created by potrace 1.11, written by Peter Selinger 2001-2013
</metadata>
<g transform="translate(0.000000,100.000000) scale(0.100000,-0.100000)"
fill="#000000" stroke="none">
<path d="M0 500 l0 -500 500 0 500 0 0 500 0 500 -500 0 -500 0 0 -500z m210
367 c0 -2 -12 -14 -27 -28 l-28 -24 24 28 c23 25 31 32 31 24z m330 -32 c30
-7 44 -14 30 -14 -19 -1 -21 -4 -12 -13 9 -9 17 -10 30 -1 15 9 25 5 58 -24
l39 -34 -43 27 c-32 21 -46 24 -54 16 -9 -9 -7 -12 7 -12 24 -1 103 -73 115
-105 21 -55 -69 -58 -123 -4 -16 17 -30 29 -31 27 -29 -47 -41 -58 -70 -67
-21 -5 -51 -6 -73 -1 -20 5 -39 8 -40 6 -2 -2 12 -15 31 -30 30 -22 44 -26
106 -26 40 0 86 6 106 15 20 8 40 13 44 10 4 -2 10 -21 13 -42 4 -21 9 -50 13
-65 6 -25 3 -28 -17 -28 -13 0 -33 7 -43 15 -29 22 -45 18 -56 -11 -7 -17 -15
-24 -28 -20 -108 30 -135 39 -124 43 6 3 12 12 12 22 0 20 -67 91 -85 91 -16
0 -77 -31 -88 -45 -4 -5 -4 16 -1 48 7 57 7 57 -20 57 -16 0 -26 5 -26 15 0
19 -21 19 -64 1 -45 -19 -66 -52 -66 -102 0 -80 80 -108 152 -54 21 16 28 17
28 6 0 -14 -66 -46 -95 -46 -9 0 -15 -9 -15 -23 0 -13 -7 -46 -15 -73 -9 -31
-11 -52 -5 -58 7 -7 10 -1 10 17 0 20 12 35 55 67 30 22 55 47 55 55 0 20 16
19 24 -1 11 -29 6 -63 -15 -104 -15 -28 -21 -59 -21 -97 0 -61 -12 -108 -27
-98 -5 3 -23 29 -39 58 -16 28 -42 77 -59 107 -31 56 -68 158 -61 166 3 2 16
-29 31 -69 l26 -72 0 70 c1 62 -2 72 -21 85 -13 8 -29 13 -35 12 -18 -4 -16
23 2 38 8 7 15 21 15 32 0 26 19 60 44 77 11 8 44 41 74 72 41 44 68 63 111
78 67 23 163 26 241 6z m318 -298 c-5 -10 -6 -27 -3 -37 4 -14 2 -20 -9 -20
-21 0 -29 36 -15 69 10 21 16 26 25 17 8 -7 9 -17 2 -29z m61 -11 c-3 -3 -11
5 -18 17 -13 21 -12 21 5 5 10 -10 16 -20 13 -22z m-17 -44 c9 -20 19 -50 22
-67 6 -32 -7 -65 -18 -47 -4 6 -13 9 -21 6 -17 -7 -55 31 -54 54 1 16 2 16 6
0 3 -11 14 -18 27 -18 20 0 23 5 22 34 -1 19 -5 38 -9 42 -4 4 -7 13 -7 21 0
24 15 13 32 -25z m-489 -29 c-7 -2 -19 -2 -25 0 -7 3 -2 5 12 5 14 0 19 -2 13
-5z m58 -23 l24 -21 -32 16 c-32 15 -42 25 -24 25 5 0 19 -9 32 -20z m-121 6
c0 -2 -7 -7 -16 -10 -8 -3 -12 -2 -9 4 6 10 25 14 25 6z m149 -47 c35 -12 37
-19 16 -58 -12 -23 -22 -29 -60 -34 -37 -4 -55 -13 -85 -42 -31 -30 -43 -36
-64 -31 -31 8 -32 26 -7 81 37 81 114 114 200 84z m346 -71 c1 -13 4 -34 9
-48 6 -20 3 -18 -14 8 -16 27 -18 37 -9 48 15 18 14 18 14 -8z m-698 -80 c-3
-8 -6 -5 -6 6 -1 11 2 17 5 13 3 -3 4 -12 1 -19z m43 -132 l-1 -31 -14 34 c-8
18 -15 41 -15 50 1 13 3 13 15 -3 8 -11 15 -34 15 -50z"/>
<path d="M420 827 c-14 -7 -34 -27 -45 -44 -11 -18 -25 -32 -31 -33 -7 0 -14
-7 -18 -15 -3 -8 -14 -15 -24 -15 -23 0 -59 -26 -50 -36 5 -4 17 1 28 11 10 9
26 15 33 12 8 -3 19 -1 25 5 8 8 13 3 18 -16 9 -36 40 -56 87 -56 31 0 46 7
73 34 28 28 34 41 34 78 0 49 -6 60 -37 77 -28 14 -62 14 -93 -2z"/>
<path d="M376 365 c-68 -24 -71 -61 -4 -52 37 5 88 39 88 59 0 12 -40 9 -84
-7z"/>
</g>
</svg>
